<svg width="12" height="12" viewBox="0 0 12 12" fill="none" xmlns="http://www.w3.org/2000/svg">
<path d="M11.6666 4.83203L6.79163 0.832031C6.37496 0.498698 5.66663 0.498698 5.24996 0.832031L0.333293 4.8737C0.166626 4.95703 0.124959 5.16536 0.208293 5.33203C0.249959 5.4987 0.416626 5.58203 0.583293 5.58203H0.999959V10.332C0.999959 10.957 1.45829 11.4154 2.08329 11.4154H4.74996C4.99996 11.4154 5.16663 11.2487 5.16663 10.9987V9.08203C5.16663 8.79036 5.62496 8.4987 5.99996 8.4987C6.37496 8.4987 6.87496 8.79036 6.87496 9.08203V10.9987C6.87496 11.2487 7.04163 11.4154 7.29163 11.4154H9.99996C10.625 11.4154 11.0416 10.9987 11.0416 10.332V5.58203H11.4583C11.625 5.58203 11.7916 5.45703 11.8333 5.29036C11.875 5.1237 11.8333 4.95703 11.6666 4.83203V4.83203Z" fill="#AAAAAA"/>
</svg>
