<svg width="24" height="11" viewBox="0 0 24 11" fill="none" xmlns="http://www.w3.org/2000/svg">
<path fill-rule="evenodd" clip-rule="evenodd" d="M23.563 1.59453C23.7729 2.01865 23.8402 2.34885 23.9252 3.36607C23.9925 4.17213 24.0083 4.67401 23.9963 5.6039C23.982 6.71683 23.9114 7.69726 23.8055 8.24759C23.694 8.82933 23.4293 9.32553 23.0877 9.59382C22.8236 9.80109 22.5424 9.89381 22.1007 9.91863C21.9691 9.92611 21.8028 9.93658 21.731 9.94226C21.4759 9.962 20.1105 10.0173 19.3616 10.0383C18.2486 10.0697 16.3015 10.0807 15.2424 10.0619C14.7343 10.0526 14.1328 10.0386 13.9055 10.0305C12.3804 9.97546 11.3333 9.91684 11.1239 9.87467C10.8257 9.81455 10.4925 9.61266 10.299 9.37518C9.98885 8.99473 9.82375 8.53293 9.74359 7.82228C9.55726 6.17008 9.56115 4.24331 9.75466 2.64884C9.8393 1.95046 10.0499 1.44558 10.4037 1.09355C10.6056 0.892558 10.7994 0.780098 11.0581 0.713998C11.618 0.570732 16.0004 0.456777 18.6659 0.515998C20.2056 0.550393 21.8695 0.621279 22.3116 0.671527C22.8834 0.736729 23.2851 1.03283 23.563 1.59453ZM12.8159 3.00357L13.3112 2.99759V2.99699L13.8065 2.99101L13.7942 2.17717L10.9358 2.1655V2.99101L11.9031 3.00327L11.9084 5.62274C11.9114 7.06348 11.9183 8.25417 11.924 8.26943C11.9321 8.29096 12.0329 8.29575 12.3649 8.29126L12.7941 8.28588L12.8159 3.00357ZM16.3482 8.29664V6.02502L16.3479 6.02562V3.754H15.5655V7.25849L15.3971 7.42628C15.2634 7.55908 15.2072 7.59916 15.1246 7.62189C14.9846 7.66047 14.8964 7.63415 14.8387 7.53575C14.795 7.46157 14.7941 7.42807 14.7884 5.60719L14.7824 3.754H14.0006V5.72204C14.0006 7.86505 14.003 7.91111 14.1229 8.11779C14.2542 8.3436 14.562 8.41419 14.8859 8.29306C15.0424 8.23443 15.2257 8.10792 15.3803 7.95059C15.4518 7.87791 15.5227 7.81869 15.538 7.81869C15.5589 7.81869 15.5658 7.87791 15.5658 8.05767V8.29664H16.3482ZM19.052 8.31309C19.1779 8.27601 19.3317 8.12556 19.4005 7.97213V7.97183C19.5327 7.67692 19.533 7.67004 19.533 6.01395C19.533 4.65457 19.5297 4.48708 19.4956 4.34022C19.3861 3.86975 19.1477 3.66397 18.7475 3.69418C18.5229 3.71123 18.3462 3.80036 18.1347 4.00464C18.0429 4.09347 17.96 4.16645 17.9513 4.16645C17.9427 4.16645 17.9352 3.71661 17.9352 3.16657V2.1667H17.1528V8.29664H17.9352V8.09027C17.9352 7.95358 17.9439 7.88389 17.9597 7.88389C17.9729 7.88389 18.0608 7.95598 18.1553 8.04481C18.4598 8.33104 18.7233 8.41 19.052 8.31309ZM22.6651 7.49806C22.6836 7.42897 22.7043 7.23366 22.7111 7.06318L22.7117 7.06348L22.7246 6.75362H21.9188L21.9087 7.03088C21.8973 7.34642 21.865 7.45439 21.7504 7.55519C21.6281 7.66286 21.4035 7.67004 21.2572 7.57164C21.0835 7.45439 21.0401 7.25639 21.0488 6.61244L21.0548 6.15602L22.7231 6.14436L22.7114 5.46512C22.6989 4.70751 22.683 4.59266 22.5553 4.32377C22.3663 3.92538 21.9146 3.68072 21.4597 3.68999C21.3323 3.69268 21.2046 3.71541 21.0826 3.75998C20.6608 3.91371 20.412 4.19067 20.3115 4.61868C20.2759 4.76972 20.272 4.90581 20.272 6.01455C20.272 7.37424 20.2768 7.42987 20.4159 7.70803C20.6635 8.20363 21.2842 8.46204 21.848 8.30442C22.2667 8.18718 22.5562 7.90154 22.6651 7.49806ZM3.20837 2.06677C3.20807 2.06976 3.20687 2.07544 3.20478 2.08352L3.20478 2.08322L3.1982 2.13048C3.19012 2.1885 2.88804 3.20273 2.57189 4.23371C2.5372 4.34707 2.44897 4.64078 2.37629 4.88574C2.30361 5.1307 2.21507 5.42201 2.18008 5.53268L2.12654 5.70197V6.92915C2.12654 7.88984 2.12505 8.12134 2.10531 8.17937C2.09962 8.24696 2.09095 8.25923 2.07839 8.26281C1.99913 8.28435 1.16047 8.27388 1.14641 8.25085C1.12787 8.22094 1.13086 6.43265 1.1497 6.17932C1.16615 5.96008 1.16346 5.77225 1.08839 5.47256C1.04591 5.31524 0.983702 5.12651 0.896367 4.88215C0.820696 4.67039 0.68401 4.25943 0.592786 3.96931L0.48803 3.63615C0.030193 2.18021 -0.0227146 2.01196 0.00658738 1.99616C0.0104157 1.99409 0.0156472 1.99463 0.0215622 1.99524H0.0215627H0.0215633H0.0215638C0.0247743 1.99557 0.0281861 1.99592 0.0316843 1.99589C0.46567 1.9923 1.00195 1.99499 1.00763 2.00067C1.01182 2.00486 1.15269 2.51661 1.32108 3.13813C1.48947 3.75935 1.63005 4.27678 1.63334 4.28755C1.63663 4.29832 1.73563 3.93641 1.85287 3.48328C2.09903 2.53336 2.23691 2.00875 2.24229 2.00396C2.25336 1.99379 2.37569 1.9914 2.77558 1.99379L3.21824 1.99618L3.20837 2.06677ZM7.89754 3.6361L7.89784 3.57209V3.57179L8.77838 3.56013V8.18772L8.76821 8.18982V8.25173L8.70839 8.26399C8.6363 8.27865 7.96873 8.27775 7.91489 8.26279C7.88199 8.25352 7.8769 8.22361 7.8769 8.04236V7.8327L7.75188 7.95443C7.46415 8.23438 7.15369 8.36479 6.86596 8.3265C6.64733 8.29749 6.51991 8.21314 6.43228 8.03997L6.43205 8.03951L6.43203 8.03947L6.43202 8.03946C6.42007 8.01576 6.40943 7.99464 6.39994 7.97301C6.32251 7.79642 6.32251 7.58588 6.32251 5.65768V3.6361H6.33268V3.57209H7.21411L7.22338 5.43545L7.22404 5.56761C7.23221 7.20378 7.23314 7.3902 7.31008 7.43011C7.31997 7.43524 7.33112 7.43795 7.34371 7.44101L7.35169 7.44298C7.46296 7.47079 7.58618 7.41097 7.73962 7.25485L7.87661 7.11517L7.88199 5.40255L7.88767 3.6361H7.89754ZM5.6618 4.48497C5.57835 4.12666 5.42192 3.88559 5.1641 3.71899C4.75943 3.45729 4.29763 3.42977 3.86872 3.64153C3.55617 3.79586 3.35518 4.05189 3.25109 4.42755C3.23883 4.47241 3.22956 4.5098 3.22268 4.56603C3.19636 4.69853 3.19307 4.89653 3.18619 5.81804C3.17572 7.23814 3.19187 7.40713 3.36983 7.72955C3.54421 8.046 3.90641 8.27779 4.30062 8.32565C4.41936 8.34 4.65983 8.31757 4.79801 8.27929C5.11236 8.19225 5.41355 7.9437 5.54694 7.66166C5.60437 7.53993 5.63936 7.45498 5.6603 7.30035C5.69918 7.08889 5.70217 6.74733 5.70217 5.87606C5.70217 4.76493 5.69858 4.6435 5.6615 4.48497H5.6618ZM4.65654 7.37931C4.58266 7.43554 4.45345 7.46007 4.34817 7.43764C4.26712 7.42029 4.15795 7.29347 4.12445 7.17772C4.08258 7.03356 4.07929 5.02813 4.11548 4.63482C4.175 4.43802 4.34159 4.33513 4.52344 4.38418C4.66521 4.42246 4.73759 4.511 4.77887 4.69703C4.80968 4.83492 4.81326 5.0066 4.80668 6.01724C4.8025 6.68751 4.8001 7.01502 4.77797 7.19088C4.75584 7.30185 4.71905 7.33146 4.65624 7.37931H4.65654ZM21.9159 5.4919H21.4902L21.4899 5.4922C21.1228 5.4922 21.0622 5.48682 21.0508 5.45752C21.0308 5.40491 21.0589 4.79566 21.0855 4.70717C21.1483 4.49881 21.2813 4.39746 21.4908 4.39746C21.6654 4.39746 21.7754 4.46443 21.8499 4.61599C21.8974 4.71195 21.9025 4.75261 21.9091 5.10626L21.9159 5.4919ZM18.6436 4.61482C18.5868 4.50026 18.4812 4.44403 18.3583 4.44852C18.2629 4.45181 18.1567 4.49219 18.0547 4.57025L17.9788 4.62798V7.40028L18.0547 7.45801C18.227 7.58931 18.4163 7.61713 18.5464 7.53009C18.5979 7.4957 18.6317 7.44814 18.6577 7.37247C18.6918 7.27407 18.6948 7.14815 18.6903 5.98198C18.6858 4.76646 18.6831 4.69497 18.6433 4.61512L18.6436 4.61482Z" fill="#EF1C1C"/>
</svg>
